<svg xmlns="http://www.w3.org/2000/svg" xmlns:xlink="http://www.w3.org/1999/xlink" version="1.1" x="0px" y="0px" viewBox="0 0 1080 720" enable-background="new 0 0 1080 576" xml:space="preserve"><path fill="rgba(255,255,255,0.9)" d="M650,200.4c-8.6-27.6-15.6-56.4-21.3-85.2c-1.2-4.6-12.7-86.4-12.1-86.4h-78.3v2.9v-2.9H460c0.6,0-10.9,81.8-12.1,87  c-5.8,28.8-12.7,57-21.3,85.2c-15,47.2-34,93.9-27.1,144.6c5.2,39.2,22.5,76.6,55.3,97.9c8.1,5.2,17.3,9.2,25.9,12.7  c-3.5,5.2-30,43.2-30,65.7c0,24.2,20.7,25.9,20.7,25.9H540h67.4c0,0,20.7-1.7,20.7-25.9s-30.5-66.8-30.5-66.8l0,0  c8.6-2.9,16.7-6.9,24.2-12.1c32.8-21.3,50.1-58.8,55.3-97.9C683.4,294.3,664.4,248.3,650,200.4z M665.6,343.9  c-5.2,40.3-23,72-50.1,89.9c-20.2,12.7-45.5,19.6-76.6,19.6v1.7v-1.7c-31.1,0-57-6.9-76.6-20.2c-27.1-17.3-44.9-49.5-50.1-89.9  c-5.8-40.3,6.3-78.3,19.6-118.7c2.3-6.9,4.6-13.8,6.3-20.2c8.6-27.1,15.6-55.9,21.3-86.4c0.6-2.9,4-26.5,6.3-45.5  c2.9-15,4-25.3,5.2-32.3h135.9c0.6,6.9,2.3,17.3,4,31.7c2.9,19,5.8,42.6,6.3,45.5c5.8,30.5,13.2,59.3,21.3,86.4  c2.3,6.9,4.6,13.8,6.3,20.2C658.7,265,670.8,303,665.6,343.9z"/><path fill="rgba(255,255,255,0.5)" d="M471.5,419.3c17.3,10.9,39.7,16.7,67.4,16.7l0,0c27.6,0,50.1-5.8,67.4-16.7c22.5-15,37.4-42,42.6-77.8  c1.2-8.6,1.2-17.3,1.2-26.5H427.7c-0.6,9.2,0,17.9,1.2,26.5C433.4,376.7,448.4,404.4,471.5,419.3z"/><!--<text x="0" y="591" fill="#000000" font-size="5px" font-weight="bold" font-family="'Helvetica Neue', Helvetica, Arial-Unicode, Arial, Sans-serif">Created by Evan Shuster</text><text x="0" y="596" fill="#000000" font-size="5px" font-weight="bold" font-family="'Helvetica Neue', Helvetica, Arial-Unicode, Arial, Sans-serif">from the Noun Project</text>--></svg>